<?xml version="1.0" encoding="UTF-8"?>
<svg width="238px" height="78px" viewBox="0 0 238 78" version="1.1" xmlns="http://www.w3.org/2000/svg" xmlns:xlink="http://www.w3.org/1999/xlink">
    <title>logo</title>
    <g id="Page-1" stroke="none" stroke-width="1" fill="none" fill-rule="evenodd">
        <g id="logo" transform="translate(0.984000, 0.044000)">
            <polygon id="Fill-1" fill="#FFC62F" points="4.26325641e-14 51.604 236.977 51.604 236.977 2.84217094e-14 4.26325641e-14 2.84217094e-14"></polygon>
            <path d="M30.7556,12.4591 C35.5996,12.4591 39.0666,14.1921 41.4686,17.9341 L37.2546,20.9271 C35.9946,18.8791 33.8276,17.4221 30.7556,17.4221 C25.9106,17.4221 22.6416,21.1641 22.6416,26.1661 C22.6416,31.1681 25.9106,34.9891 30.7556,34.9891 C34.2216,34.9891 36.1516,33.3351 37.6486,31.0501 L41.9416,34.0041 C39.6176,37.6281 35.9146,39.9121 30.7556,39.9121 C23.0746,39.9121 16.9696,34.0831 16.9696,26.1661 C16.9696,18.2491 23.0746,12.4591 30.7556,12.4591 Z M175.897,12.7742 C183.381,12.7742 187.87,16.3592 187.87,22.8972 C187.87,27.0722 186.02,29.7112 182.711,31.2082 L188.265,39.5582 L181.884,39.5582 L177.473,32.7832 C176.961,32.8622 176.41,32.9022 175.897,32.9022 L174.007,32.9022 L174.007,39.5582 L168.493,39.5582 L168.493,12.7742 L175.897,12.7742 Z M208.6687,12.5382 L220.9177,39.5582 L215.1277,39.5582 L213.8677,36.5252 L202.9967,36.5252 L201.7357,39.5582 L196.4187,39.5582 L208.1947,12.5382 L208.6687,12.5382 Z M69.6702,12.774 L69.6702,17.619 L57.4602,17.619 L57.4602,26.127 L68.2132,26.127 L68.2132,30.853 L57.4602,30.853 L57.4602,34.713 L70.2212,34.713 L70.2212,39.558 L51.9462,39.558 L51.9462,12.774 L69.6702,12.774 Z M86.7644,12.774 L86.7644,34.713 L98.8964,34.713 L98.8964,39.558 L81.2504,39.558 L81.2504,12.774 L86.7644,12.774 Z M126.9793,12.774 L126.9793,17.619 L114.7683,17.619 L114.7683,26.127 L125.5223,26.127 L125.5223,30.853 L114.7683,30.853 L114.7683,34.713 L127.5293,34.713 L127.5293,39.558 L109.2543,39.558 L109.2543,12.774 L126.9793,12.774 Z M148.917,12.774 C153.919,12.774 156.715,15.925 156.715,19.706 C156.715,22.188 155.258,23.881 152.934,24.63 C156.597,25.496 158.37,27.938 158.37,31.286 C158.37,36.052 154.983,39.558 149.389,39.558 L138.558,39.558 L138.558,12.774 L148.917,12.774 Z M148.838,27.347 L144.073,27.347 L144.073,34.713 L149.154,34.713 C151.399,34.713 152.817,33.216 152.817,31.01 C152.817,28.844 151.36,27.347 148.838,27.347 Z M208.3527,22.4642 C208.3527,22.4642 207.5647,25.3782 206.7767,27.2692 L204.8467,31.9172 L211.8967,31.9172 L209.9667,27.2692 C209.1797,25.3782 208.3527,22.4642 208.3527,22.4642 Z M175.74,17.6192 L174.007,17.6192 L174.007,28.0962 L175.74,28.0962 C180.23,28.0962 182.2,26.6782 182.2,22.8972 C182.2,19.1162 180.151,17.6192 175.74,17.6192 Z M148.602,17.619 L144.073,17.619 L144.073,22.66 L148.327,22.66 C150.099,22.66 151.281,21.676 151.281,20.14 C151.281,18.603 150.295,17.619 148.602,17.619 Z" id="Combined-Shape" fill="#414042"></path>
            <path d="M195.7519,64.3757 C197.8129,64.3757 199.2849,65.1137 200.3069,66.7027 L198.5159,67.9747 C197.9799,67.1047 197.0589,66.4857 195.7519,66.4857 C193.6939,66.4857 192.3049,68.0757 192.3049,70.2017 C192.3049,72.3277 193.6939,73.9517 195.7519,73.9517 C197.2259,73.9517 198.0469,73.2497 198.6829,72.2777 L200.5079,73.5337 C199.5199,75.0737 197.9459,76.0457 195.7519,76.0457 C192.4889,76.0457 189.8939,73.5667 189.8939,70.2017 C189.8939,66.8377 192.4889,64.3757 195.7519,64.3757 Z M31.9901,64.3597 C35.2711,64.3597 37.8831,66.8377 37.8831,70.2017 C37.8831,73.5667 35.2711,76.0457 31.9901,76.0457 C28.7081,76.0457 26.0971,73.5667 26.0971,70.2017 C26.0971,66.8377 28.7081,64.3597 31.9901,64.3597 Z M215.9139,64.3597 C219.1949,64.3597 221.8069,66.8377 221.8069,70.2017 C221.8069,73.5667 219.1949,76.0457 215.9139,76.0457 C212.6309,76.0457 210.0209,73.5667 210.0209,70.2017 C210.0209,66.8377 212.6309,64.3597 215.9139,64.3597 Z M102.3861,64.4101 L108.1281,69.8001 C108.6801,70.3191 109.4671,71.3571 109.4671,71.3571 C109.4671,71.3571 109.3171,70.0681 109.3171,69.2811 L109.3171,64.5101 L111.5101,64.5101 L111.5101,75.9951 L111.2761,75.9951 L105.5331,70.6041 C105.031041,70.1311588 104.359259,69.2806225 104.208142,69.0870422 L104.1771,69.0471 L104.1771,69.0471 C104.1771,69.0471 104.3451,70.3021 104.3451,71.1241 L104.3451,75.8941 L102.1511,75.8941 L102.1511,64.4101 L102.3861,64.4101 Z M98.0646,64.5103 L98.0646,66.5703 L92.8746,66.5703 L92.8746,70.1853 L97.4446,70.1853 L97.4446,72.1953 L92.8746,72.1953 L92.8746,73.8353 L98.2986,73.8353 L98.2986,75.8943 L90.5306,75.8943 L90.5306,64.5103 L98.0646,64.5103 Z M206.32,64.51 L206.32,75.894 L203.976,75.894 L203.976,64.51 L206.32,64.51 Z M123.7506,64.5099 L123.7506,66.5699 L120.5026,66.5699 L120.5026,75.8939 L118.1586,75.8939 L118.1586,66.5699 L114.9106,66.5699 L114.9106,64.5099 L123.7506,64.5099 Z M23.7511,64.5099 L23.7511,66.5699 L20.5031,66.5699 L20.5031,75.8939 L18.1591,75.8939 L18.1591,66.5699 L14.9121,66.5699 L14.9121,64.5099 L23.7511,64.5099 Z M49.0694,64.5099 L49.0694,66.5699 L45.8214,66.5699 L45.8214,75.8939 L43.4774,75.8939 L43.4774,66.5699 L40.2294,66.5699 L40.2294,64.5099 L49.0694,64.5099 Z M66.0162,64.5103 L66.0162,73.8353 L71.1722,73.8353 L71.1722,75.8943 L63.6722,75.8943 L63.6722,64.5103 L66.0162,64.5103 Z M75.8452,64.3931 L79.8302,69.7671 C79.8792667,69.8340333 79.9298267,69.9051444 79.9806095,69.9781293 L80.1323559,70.2004013 C80.4071244,70.6097578 80.6502,71.0061 80.6502,71.0061 C80.6502,71.0061 81.1022,70.2521 81.4542,69.7671 L85.3712,64.3931 L85.6052,64.3931 L86.5262,75.8941 L84.1992,75.8941 L83.8982,71.8601 C83.8862,71.6826882 83.8742554,71.4765983 83.8630044,71.2651478 L83.846728,70.9468665 C83.8181343,70.3666675 83.7972,69.8341 83.7972,69.8341 C83.7972,69.8341 83.2112,70.9381 82.7432,71.5581 L80.6842,74.3201 L80.4832,74.3201 L78.4072,71.5751 C77.9382,70.9561 77.2852,69.8501 77.2852,69.8501 C77.2852,69.8501 77.2709647,70.3830862 77.2473706,70.9633099 L77.2336022,71.2815606 C77.2238436,71.4929581 77.2129647,71.6989235 77.2012,71.8761 L76.9002,75.8941 L74.6902,75.8941 L75.6112,64.3931 L75.8452,64.3931 Z M134.6847,64.5103 L134.6847,66.5703 L129.4957,66.5703 L129.4957,70.1853 L134.0657,70.1853 L134.0657,72.1953 L129.4957,72.1953 L129.4957,73.8353 L134.9197,73.8353 L134.9197,75.8943 L127.1517,75.8943 L127.1517,64.5103 L134.6847,64.5103 Z M147.2949,64.5103 C150.4749,64.5103 152.3839,66.1683 152.3839,68.9123 C152.3839,71.6583 150.4589,73.2993 147.2949,73.2993 L146.4919,73.2993 L146.4919,75.8943 L144.1469,75.8943 L144.1469,64.5103 L147.2949,64.5103 Z M169.7662,64.5103 L169.7662,73.8353 L174.9222,73.8353 L174.9222,75.8943 L167.4222,75.8943 L167.4222,64.5103 L169.7662,64.5103 Z M182.8596,64.4097 L188.0656,75.8937 L185.6046,75.8937 L185.0696,74.6057 L180.4486,74.6057 L179.9136,75.8937 L177.6536,75.8937 L182.6586,64.4097 L182.8596,64.4097 Z M55.2487,64.4097 L60.4547,75.8937 L57.9937,75.8937 L57.4587,74.6057 L52.8377,74.6057 L52.3017,75.8937 L50.0427,75.8937 L55.0477,64.4097 L55.2487,64.4097 Z M158.9992,64.4097 L164.2052,75.8937 L161.7442,75.8937 L161.2092,74.6057 L156.5882,74.6057 L156.0522,75.8937 L153.7932,75.8937 L158.7982,64.4097 L158.9992,64.4097 Z M215.9139,66.4517 C213.8369,66.4517 212.4319,68.0757 212.4319,70.2017 C212.4319,72.3277 213.8369,73.9517 215.9139,73.9517 C217.9899,73.9517 219.3959,72.3277 219.3959,70.2017 C219.3959,68.0757 217.9899,66.4517 215.9139,66.4517 Z M31.9901,66.4517 C29.9141,66.4517 28.5081,68.0757 28.5081,70.2017 C28.5081,72.3277 29.9141,73.9517 31.9901,73.9517 C34.0661,73.9517 35.4721,72.3277 35.4721,70.2017 C35.4721,68.0757 34.0661,66.4517 31.9901,66.4517 Z M55.1147,68.6287 C55.1147,68.6287 54.7797,69.8667 54.4447,70.6717 L53.6247,72.6467 L56.6217,72.6467 L55.8007,70.6717 C55.4667,69.8667 55.1147,68.6287 55.1147,68.6287 Z M158.8652,68.6287 C158.8652,68.6287 158.5302,69.8667 158.1942,70.6717 L157.3752,72.6467 L160.3722,72.6467 L159.5512,70.6717 C159.2172,69.8667 158.8652,68.6287 158.8652,68.6287 Z M182.7256,68.6287 C182.7256,68.6287 182.3906,69.8667 182.0556,70.6717 L181.2356,72.6467 L184.2326,72.6467 L183.4116,70.6717 C183.0776,69.8667 182.7256,68.6287 182.7256,68.6287 Z M147.2279,66.5703 L146.4919,66.5703 L146.4919,71.2393 L147.2279,71.2393 C149.1359,71.2393 149.9729,70.4703 149.9729,68.9123 C149.9729,67.3393 149.1029,66.5703 147.2279,66.5703 Z" id="Combined-Shape" fill="#000000"></path>
        </g>
    </g>
</svg>